<svg version="1.1" id="Layer_1" xmlns="http://www.w3.org/2000/svg" xmlns:xlink="http://www.w3.org/1999/xlink" x="0px" y="0px"
	 width="100%" viewBox="0 0 1024 1024" enable-background="new 0 0 1024 1024" xml:space="preserve">
<path fill="#2c2b6d" opacity="1.000000" stroke="none" 
	d="
M336.684052,411.999939 
	C336.684235,401.668823 336.702820,391.837708 336.678253,382.006683 
	C336.663757,376.206207 338.937561,371.891785 344.076019,368.842987 
	C391.718781,340.574829 439.308441,312.217194 486.918427,283.893799 
	C492.780060,280.406708 498.771393,277.126282 504.519226,273.462433 
	C510.284210,269.787628 515.864502,270.261749 521.427673,273.549652 
	C551.193298,291.141602 580.929321,308.783875 610.678345,326.404114 
	C633.991638,340.212524 657.250916,354.113739 680.664795,367.749481 
	C686.609680,371.211639 689.419067,375.665070 689.406860,382.651611 
	C689.280823,454.634918 689.325989,526.618530 689.319092,598.602051 
	C689.318359,606.358887 689.305603,606.366333 681.613953,606.380432 
	C675.115417,606.392395 668.601624,606.110596 662.123291,606.472839 
	C657.002380,606.759094 655.586426,604.801331 655.606201,599.841980 
	C655.785645,554.853577 655.754272,509.864349 655.770569,464.875366 
	C655.778503,442.880432 655.691833,420.885101 655.814453,398.890900 
	C655.834229,395.348511 654.866272,393.170319 651.641785,391.297821 
	C620.147827,373.008759 588.743958,354.564484 557.340820,336.119385 
	C544.015259,328.292389 530.707214,320.433044 517.495850,312.415985 
	C514.557922,310.633118 512.390869,310.722809 509.389832,312.485840 
	C478.556030,330.599762 447.501862,348.340637 416.754547,366.598785 
	C402.305939,375.178558 388.091705,384.159424 373.475525,392.464569 
	C371.217102,393.747864 370.293152,395.515656 370.265045,398.157135 
	C370.192352,404.991028 370.960083,411.792816 371.029968,418.597046 
	C371.257568,440.756165 371.688385,462.939728 370.910217,485.074127 
	C370.301117,502.399323 369.912262,519.727722 370.485657,537.010254 
	C371.165222,557.492737 371.063263,577.960144 371.143860,598.435913 
	C371.175049,606.361816 371.135132,606.364624 363.001648,606.374268 
	C356.336517,606.382141 349.661438,606.161560 343.009521,606.459839 
	C338.101135,606.679993 336.509247,604.519958 336.637543,599.953613 
	C336.810638,593.793274 336.676880,587.624329 336.677124,581.459106 
	C336.679260,525.139404 336.681854,468.819672 336.684052,411.999939 
z"/>
<path fill="#2c2b6d" opacity="1.000000" stroke="none" 
	d="
M462.999878,606.386658 
	C443.012573,606.384399 423.525269,606.400574 404.038025,606.370789 
	C394.741028,606.356567 391.675751,603.307983 391.650116,594.197998 
	C391.637939,589.867493 391.608673,585.536560 391.656189,581.206604 
	C391.718689,575.510376 393.356598,573.790100 399.146393,573.777649 
	C421.131866,573.730408 443.117523,573.778992 465.103119,573.773926 
	C518.566772,573.761536 572.030457,573.739380 625.494141,573.720581 
	C633.720947,573.717712 634.323608,574.307190 634.348389,582.484070 
	C634.363586,587.480774 634.396362,592.477844 634.353821,597.474182 
	C634.295166,604.353760 632.290649,606.378418 625.394348,606.380432 
	C571.429504,606.396301 517.464722,606.387451 462.999878,606.386658 
z"/>
<path fill="#2c2b6d" opacity="1.000000" stroke="none" 
	d="
M465.654236,414.185547 
	C465.850922,405.204010 470.167358,400.736023 478.608887,400.711121 
	C502.257172,400.641357 525.905823,400.653412 549.554199,400.704803 
	C556.576599,400.720062 559.318726,403.459747 559.332275,410.316498 
	C559.369934,429.468353 559.365784,448.620392 559.336304,467.772278 
	C559.325623,474.745667 555.498718,479.176239 548.357422,479.240173 
	C524.044983,479.457825 499.728790,479.413177 475.415527,479.249329 
	C470.027161,479.213013 466.007721,474.483032 465.821350,468.401947 
	C465.572205,460.273407 465.510834,452.168579 466.514557,444.020111 
	C467.717529,434.254333 465.620483,424.459534 465.654236,414.185547 
M507.988556,438.894318 
	C511.638672,438.923431 515.288818,438.956573 518.938904,438.980133 
	C520.987488,438.993347 522.279907,438.373840 522.662903,435.982819 
	C524.707642,423.214294 521.429138,419.701508 508.808777,421.356689 
	C507.640320,421.509918 506.501801,421.606873 505.753571,422.697021 
	C504.346039,424.747711 505.341644,436.474640 507.988556,438.894318 
z"/>
<path fill="#2c2b6d" opacity="1.000000" stroke="none" 
	d="
M589.982483,488.666046 
	C592.810608,488.666626 595.142456,488.656128 597.474243,488.669495 
	C605.354309,488.714691 609.501343,491.657074 609.704590,499.311066 
	C610.177368,517.117188 610.214050,534.950745 609.784058,552.757690 
	C609.589844,560.800049 605.111694,564.293640 597.050964,564.319824 
	C574.733215,564.392273 552.414978,564.409668 530.097229,564.355286 
	C521.749023,564.334961 518.665894,561.130371 518.657837,552.832397 
	C518.641174,535.676819 518.643433,518.521240 518.656433,501.365631 
	C518.662964,492.752533 522.715698,488.700531 531.523682,488.679352 
	C550.844421,488.632935 570.165344,488.665558 589.982483,488.666046 
M574.663635,515.577271 
	C574.636902,508.365112 574.636902,508.364838 567.236572,508.340149 
	C566.237427,508.336823 565.238342,508.337128 564.239197,508.336945 
	C556.330872,508.335419 556.296021,508.335693 556.329163,516.205139 
	C556.373535,526.739380 555.055542,525.595154 565.548828,525.619507 
	C575.586731,525.642822 574.605591,526.610779 574.663635,515.577271 
z"/>
<path fill="#2c2b6d" opacity="1.000000" stroke="none" 
	d="
M416.736938,498.428223 
	C417.897369,491.943146 421.215027,488.747101 427.151031,488.721313 
	C450.459808,488.620056 473.769714,488.598053 497.078186,488.728088 
	C503.593475,488.764435 508.185028,493.491486 508.256592,500.361145 
	C508.440491,518.007507 508.420532,535.658081 508.255920,553.304871 
	C508.199646,559.337341 504.460571,563.086548 498.434601,564.002319 
	C496.960266,564.226440 495.452362,564.316711 493.959625,564.319275 
	C473.316254,564.354736 452.672668,564.424805 432.029572,564.356628 
	C420.001862,564.316895 416.740570,560.898804 416.737305,548.827820 
	C416.732819,532.178345 416.733368,515.528809 416.736938,498.428223 
M460.669464,525.641296 
	C474.425568,525.453064 472.494934,527.429199 472.635315,514.961792 
	C472.709656,508.360535 472.629150,508.227997 465.562256,508.368439 
	C452.984253,508.618408 453.984650,505.573334 454.063110,520.489624 
	C454.085510,524.743408 455.830078,526.155457 460.669464,525.641296 
z"/>
<path fill="#2c2b6d" opacity="1.000000" stroke="none" 
	d="
M687.649292,731.935730 
	C687.648865,713.140198 687.648865,694.838562 687.648865,676.536865 
	C687.375427,676.504028 687.101929,676.471191 686.828491,676.438354 
	C682.304993,691.914490 677.777527,707.389526 673.263916,722.868530 
	C672.799011,724.462952 672.549866,726.130676 671.975342,727.680969 
	C666.589294,742.215393 670.498840,738.935913 655.211914,739.401123 
	C652.399048,739.486694 650.965393,738.299072 650.234436,735.638062 
	C645.747620,719.304321 641.088867,703.017273 636.696289,686.658569 
	C635.324341,681.549500 633.005615,676.707520 632.285156,671.385620 
	C632.285156,691.786133 632.294617,712.186584 632.279846,732.587097 
	C632.274963,739.353271 632.245239,739.451660 625.798645,739.373352 
	C612.232544,739.208557 613.925110,741.408142 613.895081,727.490601 
	C613.840698,702.328125 613.967102,677.164612 613.758667,652.003723 
	C613.719360,647.256897 615.023376,645.449646 619.947937,645.738525 
	C626.423889,646.118347 632.945435,645.960938 639.436890,645.734924 
	C642.646362,645.623108 643.949280,646.581238 644.830811,649.874084 
	C649.423950,667.032288 654.381714,684.092957 659.226685,701.183533 
	C659.617371,702.561523 660.115051,703.909180 660.806824,706.011841 
	C664.955383,695.922302 666.394226,685.838867 669.563782,676.270691 
	C672.541809,667.280762 675.077271,658.140686 677.645935,649.021118 
	C678.307251,646.673218 679.481079,645.756226 681.862793,645.788208 
	C688.527222,645.877563 695.194641,645.909668 701.858398,645.805237 
	C704.954956,645.756653 706.380615,646.795471 706.371704,650.116577 
	C706.295898,678.445068 706.295776,706.773926 706.366516,735.102417 
	C706.374634,738.374451 705.072388,739.601135 701.905151,739.411804 
	C699.414673,739.263000 696.907776,739.400879 694.408264,739.389526 
	C687.727905,739.359070 687.727905,739.354370 687.649292,731.935730 
z"/>
<path fill="#2c2b6d" opacity="1.000000" stroke="none" 
	d="
M579.671509,679.632446 
	C581.820435,669.677307 583.995178,660.130981 586.000244,650.549194 
	C586.732117,647.051636 588.411316,645.410034 592.152466,645.725891 
	C595.462463,646.005371 598.815430,645.866516 602.146240,645.784851 
	C605.470154,645.703369 606.035095,647.120422 605.234680,650.156616 
	C601.554504,664.117676 597.968323,678.104797 594.497375,692.119446 
	C591.024109,706.143921 587.610962,720.185730 584.432251,734.278809 
	C583.595093,737.990417 582.121216,739.980591 578.148132,739.401123 
	C577.821899,739.353516 577.482422,739.396179 577.149109,739.398193 
	C563.504089,739.480652 563.869690,739.398865 560.885803,726.063965 
	C557.443054,710.678711 553.276306,695.455322 549.398315,680.168213 
	C549.206360,679.411377 548.770264,678.716492 548.046021,677.090759 
	C544.673584,691.216858 541.529602,704.393250 538.381531,717.568604 
	C536.954224,723.542419 535.473389,729.504028 534.107605,735.491882 
	C533.507996,738.120667 532.238403,739.703186 529.325134,739.384338 
	C529.160828,739.366333 528.992065,739.383789 528.825562,739.390442 
	C513.885437,739.985168 513.835083,739.997803 510.235687,725.629700 
	C504.064484,700.995361 497.953094,676.346008 491.839966,651.697144 
	C490.423004,645.983643 490.500000,645.919556 496.562775,645.864075 
	C499.395599,645.838196 502.261444,646.141113 505.054535,645.808899 
	C509.519989,645.277588 510.597321,647.647766 511.415466,651.450012 
	C515.461853,670.255798 519.783020,689.002441 524.022034,707.766602 
	C524.115784,708.181824 524.384399,708.557556 524.684204,709.189453 
	C529.053467,690.334717 533.360962,671.777466 537.651489,653.216248 
	C539.350464,645.866150 539.333435,645.862122 546.668823,645.831726 
	C557.937195,645.785034 558.007385,645.766235 560.867126,656.401489 
	C565.522461,673.714478 568.327209,691.438049 572.551147,710.049561 
	C575.077881,699.333496 577.353943,689.680359 579.671509,679.632446 
z"/>
<path fill="#2c2b6d" opacity="1.000000" stroke="none" 
	d="
M352.930054,740.356079 
	C342.793976,740.721985 333.427368,739.872070 325.645325,733.293884 
	C318.567352,727.310852 316.473328,719.335388 316.940857,710.429077 
	C317.040100,708.538269 318.194336,707.827942 319.905945,707.789978 
	C322.069458,707.742004 324.234192,707.723450 326.398285,707.728516 
	C334.771637,707.748169 334.829468,707.740295 336.645599,715.633667 
	C337.286987,718.421448 338.768860,720.389709 341.137360,721.904663 
	C349.610565,727.324341 362.804901,723.478027 364.874542,714.937988 
	C366.099091,709.884949 363.186981,704.677124 358.060791,703.476135 
	C352.580963,702.192322 346.939331,701.584717 341.479858,700.231873 
	C332.657227,698.045654 323.997803,695.300476 319.836365,686.010803 
	C311.902679,668.300476 319.263672,646.077393 343.852020,644.775146 
	C351.097473,644.391418 358.355103,644.347229 365.584900,646.499390 
	C376.291748,649.686584 379.450989,657.993896 381.258820,667.484253 
	C381.687897,669.736633 381.514709,672.103699 381.648804,675.091919 
	C375.587921,675.616882 369.601227,675.458984 363.640625,675.120361 
	C363.123901,663.263855 351.625793,657.049438 341.531555,662.582642 
	C337.876953,664.585938 335.924744,667.610291 336.179810,671.963013 
	C336.425018,676.146851 338.650146,678.714294 342.381134,680.165894 
	C347.361145,682.103455 352.579468,682.979004 357.846863,683.758301 
	C366.428192,685.027893 374.327789,687.787476 379.622437,695.304077 
	C386.448120,704.994263 386.043732,715.664673 381.820587,725.752258 
	C377.531372,735.997681 367.815247,739.250244 357.408997,740.323792 
	C356.090485,740.459778 354.746765,740.351868 352.930054,740.356079 
z"/>
<path fill="#2c2b6d" opacity="1.000000" stroke="none" 
	d="
M742.415405,644.727417 
	C751.304199,644.825623 759.798340,643.835754 767.903137,647.503052 
	C775.887695,651.115967 782.975830,664.236084 781.300598,672.772400 
	C780.932922,674.645996 779.994446,675.316833 778.289795,675.338135 
	C776.125793,675.365234 773.935913,675.165039 771.802368,675.428406 
	C766.746399,676.052490 763.178345,675.177002 762.938110,668.972290 
	C762.810730,665.682007 760.285461,663.640442 757.344177,662.545837 
	C752.704773,660.819031 747.918213,660.651367 743.167236,662.135071 
	C738.872803,663.476257 736.466187,666.551514 736.414673,670.989319 
	C736.363831,675.380615 738.560242,678.452820 742.824402,680.098022 
	C748.925354,682.452148 755.350830,683.357666 761.695679,684.593445 
	C785.520935,689.234192 789.883301,713.401184 779.968811,729.094421 
	C775.678772,735.884827 768.794434,738.862427 761.055420,739.724121 
	C749.219788,741.041870 737.419983,741.619690 727.107361,733.956543 
	C719.218445,728.094238 717.239380,719.789551 717.725525,710.529602 
	C717.823181,708.670044 718.880310,707.851746 720.621094,707.841431 
	C724.614807,707.817810 728.609863,707.792725 732.602478,707.868347 
	C735.557373,707.924255 735.754883,710.422791 736.254761,712.442383 
	C738.832947,722.858826 749.910034,727.637878 759.477051,722.428040 
	C763.326904,720.331665 765.618835,717.091064 765.379578,712.757812 
	C765.132080,708.274658 762.714661,705.163269 758.226929,703.527405 
	C751.762024,701.170776 744.892212,701.032166 738.294434,699.355042 
	C716.288391,693.761108 713.600159,671.698608 721.162659,657.784058 
	C725.572815,649.669678 733.313904,646.366089 742.415405,644.727417 
z"/>
<path fill="#2c2b6d" opacity="1.000000" stroke="none" 
	d="
M289.999908,645.644775 
	C296.164490,645.659302 301.829956,645.738037 307.493347,645.661621 
	C310.253571,645.624390 311.173737,646.816223 311.370087,649.526855 
	C312.376160,663.416504 312.441223,663.411865 298.520325,663.410583 
	C286.346436,663.409546 286.346985,663.409485 286.347809,675.422302 
	C286.349060,694.582336 286.363068,713.742432 286.329773,732.902405 
	C286.326385,734.858093 286.739716,736.888794 285.623871,739.052246 
	C280.811340,739.795898 275.840607,739.268433 270.893188,739.328674 
	C267.264008,739.372803 267.676575,736.686340 267.671478,734.404419 
	C267.640808,720.742615 267.652771,707.080566 267.650665,693.418640 
	C267.649353,685.088135 267.456512,676.751404 267.729309,668.429871 
	C267.863251,664.345093 266.304138,663.179565 262.480713,663.354065 
	C257.326904,663.589294 252.150146,663.280945 246.990189,663.436462 
	C243.714630,663.535095 242.611465,662.161743 242.667252,658.998413 
	C242.956299,642.603882 240.458298,645.954834 255.512283,645.686646 
	C266.838165,645.484802 278.170471,645.645691 289.999908,645.644775 
z"/>
<path fill="#2c2b6d" opacity="1.000000" stroke="none" 
	d="
M414.355652,712.865173 
	C414.370331,720.664185 414.370331,720.667603 421.682465,720.671326 
	C430.169312,720.675659 438.660767,720.838745 447.140961,720.601379 
	C451.156036,720.489014 452.353943,722.037964 452.267181,725.859375 
	C451.895355,742.239441 454.404022,739.132751 438.996063,739.362061 
	C426.351868,739.550293 413.700592,739.263306 401.056610,739.458679 
	C396.980652,739.521667 395.559845,738.231689 395.581207,734.067261 
	C395.723846,706.277710 395.721619,678.486816 395.581818,650.697205 
	C395.561737,646.704163 396.952240,645.390320 400.795532,645.608276 
	C405.076080,645.851074 409.381012,645.663940 414.356018,645.663940 
	C414.356018,668.246826 414.356018,690.317139 414.355652,712.865173 
z"/>
<path fill="#2c2b6d" opacity="1.000000" stroke="none" 
	d="
M487.780334,690.826416 
	C491.109985,691.610229 490.259003,693.994507 490.310028,695.813049 
	C490.651764,707.990417 490.618927,708.090027 478.726379,708.026489 
	C471.416016,707.987427 464.108826,707.504150 456.797638,707.397217 
	C453.857422,707.354187 452.630737,706.268433 452.664825,703.260437 
	C452.839050,687.891602 451.017517,691.023987 464.342804,690.752991 
	C471.992371,690.597412 479.648376,690.758789 487.780334,690.826416 
z"/>
</svg>